<svg xmlns="http://www.w3.org/2000/svg" viewBox="100 450 880 170" fill="#fff">
  <path d="M 727.5,450.5 C 733.5,450.5 739.5,450.5 745.5,450.5C 745.333,479.502 745.5,508.502 746,537.5C 748.99,544.998 754.49,548.665 762.5,548.5C 762.5,554.5 762.5,560.5 762.5,566.5C 745.01,566.519 733.51,558.185 728,541.5C 727.5,511.168 727.333,480.835 727.5,450.5 Z"/>
  <path d="M 536.5,451.5 C 542.5,451.5 548.5,451.5 554.5,451.5C 554.667,479.835 554.5,508.169 554,536.5C 548.85,555.674 536.35,566.34 516.5,568.5C 490.104,565.608 476.937,550.941 477,524.5C 482.59,500.446 497.757,489.113 522.5,490.5C 522.5,495.833 522.5,501.167 522.5,506.5C 510.22,506.38 501.387,511.713 496,522.5C 492.949,535.13 497.449,543.964 509.5,549C 522.954,551.691 531.788,546.524 536,533.5C 536.5,506.169 536.667,478.835 536.5,451.5 Z"/>
  <path d="M 850.5,458.5 C 857.167,458.5 863.833,458.5 870.5,458.5C 870.034,486.217 870.534,513.884 872,541.5C 877.784,552.317 886.284,555.15 897.5,550C 906.266,542.461 907.766,533.628 902,523.5C 898.142,519.154 893.308,516.821 887.5,516.5C 887.5,509.5 887.5,502.5 887.5,495.5C 910.805,498.138 923.805,511.138 926.5,534.5C 925.051,554.599 914.717,567.432 895.5,573C 871.461,575.272 856.628,564.772 851,541.5C 850.5,513.835 850.333,486.169 850.5,458.5 Z"/>
  <path d="M 888.5,463.5 C 911.774,464.389 931.607,473.055 948,489.5C 955.5,499.259 953.5,505.926 942,509.5C 936.694,507.213 932.194,503.713 928.5,499C 916.604,490.223 903.271,485.056 888.5,483.5C 888.5,476.833 888.5,470.167 888.5,463.5 Z"/>
  <path d="M 764.5,489.5 C 770.833,489.5 777.167,489.5 783.5,489.5C 783.333,504.837 783.5,520.17 784,535.5C 790.539,549.165 800.372,552.332 813.5,545C 816.491,542.01 818.657,538.51 820,534.5C 820.5,519.504 820.667,504.504 820.5,489.5C 826.5,489.5 832.5,489.5 838.5,489.5C 838.667,505.503 838.5,521.503 838,537.5C 833.283,556.197 821.283,566.197 802,567.5C 781.012,565.51 768.679,554.177 765,533.5C 764.5,518.837 764.333,504.17 764.5,489.5 Z"/>
  <path d="M 224.5,490.5 C 257.81,489.309 273.31,505.309 271,538.5C 263.139,561.184 247.305,570.684 223.5,567C 222.527,561.593 222.193,556.093 222.5,550.5C 232.776,552.35 241.61,549.684 249,542.5C 257.577,527.563 254.077,516.396 238.5,509C 225.853,506.736 217.353,511.569 213,523.5C 212.5,551.165 212.333,578.831 212.5,606.5C 206.5,606.5 200.5,606.5 194.5,606.5C 194.333,577.498 194.5,548.498 195,519.5C 199.456,504.21 209.289,494.543 224.5,490.5 Z"/>
  <path d="M 307.5,490.5 C 309.5,490.5 311.5,490.5 313.5,490.5C 313.829,496.537 313.496,502.537 312.5,508.5C 304.865,509.9 299.698,514.233 297,521.5C 296.5,537.163 296.333,552.83 296.5,568.5C 290.167,568.5 283.833,568.5 277.5,568.5C 277.333,553.83 277.5,539.163 278,524.5C 280.208,506.464 290.041,495.131 307.5,490.5 Z"/>
  <path d="M 348.5,490.5 C 371.167,488.245 386.001,497.912 393,519.5C 393.499,524.489 393.666,529.489 393.5,534.5C 377.492,534.533 361.492,534.866 345.5,535.5C 345.5,530.833 345.5,526.167 345.5,521.5C 355.19,521.832 364.856,521.498 374.5,520.5C 367.699,508.291 358.032,505.458 345.5,512C 333.272,523.971 333.605,535.638 346.5,547C 354.034,551.621 361.367,551.287 368.5,546C 375.833,545.333 383.167,545.333 390.5,546C 380.333,565.286 364.666,571.952 343.5,566C 324.129,555.925 316.629,540.091 321,518.5C 325.684,504.65 334.851,495.316 348.5,490.5 Z"/>
  <path d="M 427.5,490.5 C 448.477,488.007 462.31,496.674 469,516.5C 469.5,533.83 469.667,551.163 469.5,568.5C 463.5,568.5 457.5,568.5 451.5,568.5C 451.667,552.497 451.5,536.497 451,520.5C 445.309,508.271 436.476,505.437 424.5,512C 421.836,514.669 420.002,517.836 419,521.5C 418.5,537.163 418.333,552.83 418.5,568.5C 412.5,568.5 406.5,568.5 400.5,568.5C 400.333,551.83 400.5,535.163 401,518.5C 404.274,503.73 413.107,494.397 427.5,490.5 Z"/>
  <path d="M 590.5,491.5 C 613.477,488.728 628.977,498.061 637,519.5C 640.966,541.068 633.133,556.568 613.5,566C 588.404,572.37 571.238,563.536 562,539.5C 558.44,515.605 567.94,499.605 590.5,491.5 Z M 593.5,509.5 C 607.164,507.744 615.997,513.41 620,526.5C 620.159,542.341 612.326,550.174 596.5,550C 581.443,545.387 576.277,535.554 581,520.5C 584.124,515.536 588.291,511.87 593.5,509.5 Z"/>
  <path d="M 141.5,493.5 C 152.736,492.512 163.07,495.012 172.5,501C 178.534,506.564 182.367,513.398 184,521.5C 184.5,537.163 184.667,552.83 184.5,568.5C 179.5,568.5 174.5,568.5 169.5,568.5C 169.937,552.776 169.437,537.109 168,521.5C 164.238,512.938 157.571,508.605 148,508.5C 129.744,511.647 123.077,522.313 128,540.5C 132.48,551.33 140.647,555.83 152.5,554C 156.451,553.464 159.951,551.964 163,549.5C 163.499,555.491 163.666,561.491 163.5,567.5C 145.922,573.492 130.755,569.825 118,556.5C 110.138,541.504 109.471,526.171 116,510.5C 121.776,500.699 130.276,495.032 141.5,493.5 Z"/>
  <path d="M 675.5,493.5 C 694.842,490.672 709.176,497.672 718.5,514.5C 711.189,515.665 703.856,515.831 696.5,515C 683.524,507.433 673.358,510.267 666,523.5C 662.872,534.793 666.372,543.293 676.5,549C 685.246,552.096 692.913,550.43 699.5,544C 706.192,543.169 712.858,543.336 719.5,544.5C 712.743,559.581 701.076,567.581 684.5,568.5C 656.985,564.819 644.818,549.152 648,521.5C 652.007,506.994 661.174,497.66 675.5,493.5 Z"/>
  <path d="M 960.5,511.5 C 961.043,511.56 961.376,511.893 961.5,512.5C 957.325,520.485 958.325,527.818 964.5,534.5C 964.167,534.833 963.833,535.167 963.5,535.5C 955.241,532.356 948.074,534.023 942,540.5C 944.638,531.991 943.472,523.991 938.5,516.5C 939.79,515.592 941.123,515.759 942.5,517C 949.618,518.458 955.618,516.625 960.5,511.5 Z"/>
  <path d="M 948.5,545.5 C 959.102,548.094 961.935,554.428 957,564.5C 946.021,588.427 927.521,602.927 901.5,608C 896.536,608.912 891.536,609.412 886.5,609.5C 886.5,602.833 886.5,596.167 886.5,589.5C 912.889,587.939 931.056,574.939 941,550.5C 942.913,547.72 945.413,546.053 948.5,545.5 Z"/>
</svg>
