<svg id="Layer_2" data-name="Layer 2" xmlns="http://www.w3.org/2000/svg" viewBox="0 0 404.51 158.99"><defs><style>.cls-1{fill:#ffffff;stroke-width:0}</style></defs><g id="Layer_1-2" data-name="Layer 1"><path class="cls-1" d="M339.2 103.78c.08-.31-.1-.63-.4-.73-6.13-1.91-12.69-.14-18.92-1.28-9.88-1.81-17.07-10.57-18.79-20.2-3.03-16.97 11.32-32.93 28.66-31.12 11.01 1.14 20.32 9.23 23.29 20.3 0 0 .49 1.08.94-.07 2.32-5.91 5.14-11.94 10.43-15.78 10.61-7.71 24.61-5.72 33.3 3.9 11.91 13.19 6.81 36.89-10.65 42.59-6.65 2.17-10.28-.68-20.6 1.96-.51.13-.25.85-.08 1.35.26.79.77 2.17 1.04 2.94.16.47.6.32.61.32 12.47-4.15 25.5.8 32.12 10.16 7.34 10.37 5.02 24.65-4.01 33.14-6.31 5.93-15.8 9.11-24.36 6.32-8.69-2.83-13.49-11.55-18.02-18.84a.536.536 0 0 0-.28-.25c-.21-.07-.45 0-.59.21-7.08 11.34-16.85 22.56-31.54 19.9-10.49-1.9-18.64-11.26-20.41-21.58-2.36-13.7 6.25-26.44 19.98-28.92 7.29-1.32 14.92-1.12 16.67-.56.33.1.66-.09.75-.42l.86-3.33ZM263.15 106.22c0 .38.34.66.71.59 21.18-3.9 33.55 17.95 24.69 36-7.95 16.19-31.09 21.5-45.27 10.06-13.04-10.52-13.81-29.98-13.98-45.35-.17-15.45-.32-30.91.44-46.35.68-13.82.94-29.67 5.9-42.74C239.55 8.13 248.62-2.2 260.68.4c10.25 2.21 16.16 11.92 19.04 21.27 4.11 13.38 5.66 26.99 6.12 40.93.34 10.42.94 22.83-6.46 31.18-3.76 4.24-9.93 8.07-15.62 8.53-.31.03-.55.27-.55.58l-.05 3.31ZM220.4 130.02c-.05 20.21-21.35 26.76-38.03 28.19-14.66 1.25-36.51 1.85-47.25-10.31-5.8-6.56-6.05-17.2-1.73-24.61 4.84-8.3 14.91-12.22 24.19-12.01 5.54.13 11.13 1.72 15.64 5 .13.09.27.12.41.08.1 0 .19-.06.26-.13.94-.97 1.73-2.11 2.28-3.37.09-.2.04-.44-.13-.6-.07-.07-.13-.13-.2-.17-3.39-3.04-9.27-4.21-13.45-5.42-6.8-1.97-13.88-2.99-19.98-6.84-7.26-4.58-12.33-13.33-12.01-21.97.76-21.09 25.7-27.12 42.79-27.65 12.74-.39 27.88 1.19 36.89 11.26 8.13 9.09 6.95 24.4-3.02 31.71-7.73 5.67-19.55 5.49-27.68.81-2.18-1.25-4.56-2.91-4.56-2.91-.04-.03-.1-.09-.19-.13-.14-.11-.35-.2-.6-.21-.77-.03-3.31 1.96-3.38 2.55-.03.26.15.49.33.68 3.93 4.34 9.43 6.65 14.99 8.1 8.08 2.1 16.74 3.11 23.93 7.68 6.98 4.42 10.52 12.32 10.5 20.25ZM114.29 150.67c4.94-6.85 5.3-15.52 5.67-23.64.5-11.02.87-22.04 1.1-33.07.26-12.44.38-24.88.3-37.33-.12-17.92 2.39-50.25-20.71-56.03-9.82-2.45-19.63 2.82-24.99 11-6.4 9.77-5.67 22.5-3.61 33.5a70.195 70.195 0 0 0 10.59 26c.22.33.08.77-.29.91l-4.14 1.56c-.3.11-.63-.02-.76-.3-3.85-7.97-9.12-15.6-16.76-20.04-10.81-6.29-25.04-4.98-35.68 1.58C4.09 67.7-3.47 96.53 1.45 119.48c2.48 11.56 8.62 22.49 17.95 29.75 9.33 7.26 21.93 10.53 33.39 7.64 11.25-2.84 20.94-11.95 23.57-23.24.08-.34.42-.55.76-.44l4.73 1.4c.43.13.62.65.35 1.01-7.2 9.61.46 21.71 11.27 23.05 7.42.92 16.36-1.79 20.82-7.98ZM43.54 115.8c.15.4.49 1.06.26 1.42-.51.79-3.09.98-4.03.73-.73-.19-1.09-.58-1.32-1.26-2.68-8.09-2.65-17.06.06-25.14.11-.34.25-.7.56-.88.46-.27 4-.58 4.72.02.32.28.18.8.02 1.19-3.1 7.56-3.2 16.3-.27 23.93Z"/></g></svg>